<svg width="64" height="64" viewBox="0 0 64 64" fill="none" xmlns="http://www.w3.org/2000/svg">
<g clip-path="url(#clip0_149_49)">
<path d="M63.9403 39.7209L59.9843 17.3332C59.6151 15.2404 57.6142 13.838 55.5194 14.2082L23.7938 19.8136C21.8231 20.1621 20.4855 21.9616 20.6436 23.9159C20.622 24.0782 24.6268 46.6671 24.6268 46.6671C24.8046 47.6808 25.3681 48.5636 26.2128 49.1544C26.8681 49.6125 27.6308 49.8507 28.414 49.8507C28.6395 49.8507 28.8661 49.8312 29.0917 49.7912L60.8153 44.1857C61.829 44.007 62.7118 43.4445 63.3026 42.5998C63.8925 41.757 64.119 40.7345 63.9403 39.7209ZM61.2676 36.0847L50.6004 27.8791C53.6032 24.6457 56.7381 21.094 58.3029 19.307L61.2676 36.0847ZM24.1425 21.7824L55.8671 16.1769C55.9765 16.1584 56.0839 16.1486 56.1903 16.1486C56.8036 16.1486 57.3643 16.4595 57.7058 16.9484C56.7736 18.0208 48.3309 27.7052 44.2724 31.508C43.2099 32.5011 41.6698 32.7511 40.3544 32.1398C35.5643 29.9267 25.1347 24.6939 22.6275 23.433C22.6574 23.1182 22.7605 22.813 22.9472 22.546C23.2313 22.1398 23.6561 21.8693 24.1425 21.7824ZM22.9782 25.8465C25.3274 27.0249 29.5934 29.1572 33.4907 31.065L25.9679 42.7671L22.9782 25.8465ZM61.664 41.4533C61.3798 41.8595 60.956 42.13 60.4686 42.216L28.744 47.8224C28.2567 47.9064 27.7636 47.799 27.3583 47.5148C26.953 47.2316 26.6815 46.8068 26.5956 46.3195L26.4804 45.6678L35.3007 31.9474C36.9024 32.7247 38.3696 33.4265 39.5155 33.9562C40.2655 34.3029 41.0624 34.4718 41.8505 34.4718C43.2294 34.4718 44.5858 33.9552 45.6395 32.9669C46.6444 32.0257 47.8944 30.7514 49.2258 29.3452L61.7836 39.0051L61.9716 40.0685C62.0575 40.5558 61.9481 41.048 61.664 41.4533Z" fill="#E8E8E8"/>
<path d="M19.0078 29.8671C18.9121 29.3232 18.3916 28.956 17.8496 29.0566L0.826187 32.0644C0.282187 32.1601 -0.0811131 32.6787 0.0155869 33.2226C0.100587 33.708 0.522487 34.0488 0.998987 34.0488C1.05659 34.0488 1.11519 34.0439 1.17379 34.0332L18.1973 31.0253C18.7412 30.9296 19.1045 30.4111 19.0078 29.8671Z" fill="#E8E8E8"/>
<path d="M20.0292 35.6513C19.9335 35.1074 19.4141 34.7421 18.8711 34.8408L8.65714 36.6455C8.11324 36.7412 7.74994 37.2597 7.84664 37.8037C7.93154 38.289 8.35344 38.6298 8.83006 38.6298C8.88764 38.6298 8.94624 38.625 9.00484 38.6142L19.2186 36.8095C19.7626 36.7138 20.1259 36.1953 20.0292 35.6513Z" fill="#E8E8E8"/>
<path d="M19.8877 40.5969L13.0791 41.8001C12.5352 41.8958 12.1719 42.4143 12.2686 42.9583C12.3535 43.4436 12.7754 43.7844 13.2519 43.7844C13.3096 43.7844 13.3682 43.7795 13.4268 43.7688L20.2353 42.5657C20.7793 42.47 21.1426 41.9514 21.0459 41.4075C20.9512 40.8635 20.4287 40.4954 19.8877 40.5969Z" fill="#E8E8E8"/>
</g>
<defs>
<clipPath id="clip0_149_49">
<rect width="64" height="64" fill="white"/>
</clipPath>
</defs>
</svg>
