<svg width="62" height="54" viewBox="0 0 62 54" fill="none" xmlns="http://www.w3.org/2000/svg">
<path d="M41.9091 0.0570296C41.5892 -0.0916309 41.3333 0.0570296 41.3333 0.418062V43.5084L60.2937 52.9377C61.2321 53.4049 61.9999 52.9377 61.9999 51.8758V10.3996C61.9999 10.1872 61.8933 9.99605 61.7013 9.9111L41.9091 0.0570296Z" fill="#7140FF"/>
<path d="M20.6667 33.2295L40.9922 0.33308C41.1841 0.0357591 41.5893 -0.0916642 41.9093 0.0782335L61.5522 9.84735C61.7868 9.97478 61.8934 10.2721 61.7441 10.5057L41.3334 43.5083L20.6667 33.2295Z" fill="#E8E8E8"/>
<path d="M2.28212 0.927719C1.02377 0.290603 0.597218 0.757822 1.34369 1.96834L20.6667 33.2295L41.3334 43.5296L20.7947 10.2933C20.7094 10.1447 20.5814 10.0385 20.4321 9.95354L2.28212 0.927719Z" fill="#7140FF"/>
<path d="M20.6667 51.8971C20.6667 52.9377 19.8989 53.4262 18.9604 52.9589L1.1517 44.0818C0.511868 43.7632 0 42.935 0 42.2342V1.05519C0 0.354365 0.511868 0.0358064 1.1517 0.354365L20.4107 9.95359C20.56 10.0385 20.6667 10.1872 20.6667 10.3571V51.8971Z" fill="#E8E8E8"/>
</svg>
