<svg width="273" height="273" viewBox="0 0 273 273" fill="none" xmlns="http://www.w3.org/2000/svg">
<path d="M180.396 0H92.599C78.286 0 61.9733 17.0058 61.9733 31.9138V241.081C61.9733 255.994 78.286 273 92.599 273H180.397C194.711 273 211.027 255.994 211.027 241.081V31.9138C211.027 17.0058 194.71 0 180.396 0ZM204.002 241.086C204.002 252.485 191.206 265.979 180.397 265.979H92.599C81.7894 265.979 68.9982 252.485 68.9982 241.086V31.9138C68.9982 20.5141 81.7938 7.02546 92.599 7.02546H180.397C191.206 7.02546 204.002 20.5185 204.002 31.9138V241.086Z" fill="#E8E8E8"/>
<path d="M141.621 233.794C141.396 233.621 141.069 233.658 140.891 233.878C140.713 234.108 140.751 234.436 140.975 234.609C142.718 235.99 143.715 238.056 143.715 240.271C143.715 244.253 140.484 247.489 136.503 247.489C132.526 247.489 129.29 244.253 129.29 240.271C129.29 238.038 130.301 235.963 132.067 234.581C132.297 234.408 132.339 234.08 132.161 233.86C131.983 233.63 131.655 233.583 131.43 233.766C129.412 235.34 128.25 237.719 128.25 240.271C128.25 244.829 131.955 248.533 136.507 248.533C141.059 248.533 144.764 244.829 144.764 240.271C144.755 237.738 143.617 235.377 141.621 233.794Z" fill="#E8E8E8"/>
<path d="M136.498 240.791C136.788 240.791 137.018 240.561 137.018 240.271V232.544C137.018 232.253 136.783 232.023 136.498 232.023C136.212 232.023 135.978 232.253 135.978 232.544V240.271C135.978 240.561 136.212 240.791 136.498 240.791Z" fill="#E8E8E8"/>
<path d="M136.498 224.745C127.651 224.745 120.452 231.943 120.452 240.791C120.452 249.638 127.65 256.837 136.498 256.837C145.345 256.837 152.544 249.638 152.544 240.791C152.544 231.943 145.35 224.745 136.498 224.745ZM136.498 254.495C128.943 254.495 122.794 248.35 122.794 240.791C122.794 233.237 128.939 227.087 136.498 227.087C144.057 227.087 150.202 233.232 150.202 240.791C150.202 248.346 144.057 254.495 136.498 254.495Z" fill="#E8E8E8"/>
<path d="M176.838 43.0654H96.1675C90.032 43.0654 85.0441 48.0485 85.0441 54.1889V203.477C85.0441 209.608 90.032 214.6 96.1675 214.6H176.838C182.972 214.6 187.961 209.608 187.961 203.477V54.1889C187.961 48.0534 182.967 43.0654 176.838 43.0654ZM184.449 203.477C184.449 207.673 181.033 211.088 176.838 211.088H96.1675C91.9711 211.088 88.5568 207.673 88.5568 203.477V54.1889C88.5568 49.9924 91.9711 46.5782 96.1675 46.5782H176.838C181.033 46.5782 184.449 49.9924 184.449 54.1889V203.477Z" fill="#E8E8E8"/>
<path d="M114.129 30.2421C115.746 30.2421 117.057 28.9314 117.057 27.3146C117.057 25.6979 115.746 24.3872 114.129 24.3872C112.513 24.3872 111.202 25.6979 111.202 27.3146C111.202 28.9314 112.513 30.2421 114.129 30.2421Z" fill="#E8E8E8"/>
<path d="M133.575 30.2421C135.192 30.2421 136.503 28.9314 136.503 27.3146C136.503 25.6979 135.192 24.3872 133.575 24.3872C131.958 24.3872 130.648 25.6979 130.648 27.3146C130.648 28.9314 131.958 30.2421 133.575 30.2421Z" fill="#E8E8E8"/>
<path d="M153.021 30.2421C154.638 30.2421 155.949 28.9314 155.949 27.3146C155.949 25.6979 154.638 24.3872 153.021 24.3872C151.404 24.3872 150.094 25.6979 150.094 27.3146C150.094 28.9314 151.404 30.2421 153.021 30.2421Z" fill="#E8E8E8"/>
</svg>
