<svg width="15" height="15" viewBox="0 0 15 15" fill="none" xmlns="http://www.w3.org/2000/svg">
<path d="M9.78561 3.95767C10.1133 4.14887 10.4417 4.34029 10.7224 4.57908C10.6284 4.00547 10.4879 3.52724 10.3005 3.04944C9.83204 3.14483 9.31651 3.24043 8.80139 3.38384C9.12932 3.57547 9.45768 3.76646 9.78561 3.95767Z" fill="#E8E8E8"/>
<path d="M2.99292 7.35134C3.27401 7.73375 3.64879 8.11616 4.02357 8.49836C3.97672 8.11616 3.97672 7.73353 3.97672 7.35134C3.97672 6.96892 3.97672 6.58651 4.02357 6.2041C3.64858 6.58651 3.32085 6.96892 2.99292 7.35134Z" fill="#E8E8E8"/>
<path d="M11.0507 3.00161C11.2847 3.67083 11.4723 4.38763 11.6128 5.20047C12.2218 5.7265 12.7844 6.2521 13.2059 6.77813C13.9084 5.67891 14.096 4.67508 13.6739 3.95764C13.2993 3.33622 12.5023 3.00182 11.3317 3.00182C11.2383 2.95402 11.1441 2.95402 11.0507 3.00161Z" fill="#E8E8E8"/>
<path d="M12.737 7.35134C12.4557 6.96892 12.081 6.58651 11.7062 6.2041C11.753 6.58651 11.753 6.96892 11.753 7.35134C11.753 7.73375 11.753 8.11616 11.7062 8.49836C12.0812 8.11637 12.4093 7.73375 12.737 7.35134Z" fill="#E8E8E8"/>
<path d="M7.8649 10.9362C8.38023 10.6976 8.9424 10.4588 9.45772 10.1235C9.97304 9.83652 10.4886 9.50234 10.91 9.11971C11.0031 8.5461 11.0505 7.92425 11.0505 7.30283C11.0505 6.68184 11.0031 6.1078 10.91 5.48638C10.4415 5.15198 9.97304 4.81716 9.45772 4.48276C8.9424 4.19595 8.42686 3.90914 7.8649 3.66992C7.34958 3.90893 6.78783 4.14794 6.27209 4.48276C5.75676 4.76978 5.24144 5.10418 4.82023 5.48638C4.72653 6.05999 4.67969 6.68184 4.67969 7.30283C4.67969 7.92425 4.72653 8.54567 4.82023 9.11971C5.28871 9.4539 5.75697 9.78915 6.27209 10.1235C6.78762 10.4588 7.34958 10.6976 7.8649 10.9362Z" fill="#E8E8E8"/>
<path d="M7.8651 11.701C7.1628 11.9885 6.41324 12.1791 5.75696 12.3225C6.31913 13.4699 7.06869 14.1396 7.8651 14.1396C8.66192 14.1396 9.41148 13.4225 9.97324 12.3225C9.31716 12.2273 8.5676 11.9885 7.8651 11.701Z" fill="#E8E8E8"/>
<path d="M4.67947 11.7011C4.44524 11.032 4.25743 10.3155 4.1173 9.5024C3.50828 9.02439 2.99296 8.45035 2.52449 7.92432C1.82219 9.02375 1.63438 10.0274 2.05643 10.745C2.43121 11.3662 3.22762 11.7008 4.39839 11.7008C4.49187 11.7491 4.58557 11.7491 4.67947 11.7011Z" fill="#E8E8E8"/>
<path d="M4.16415 5.15251C4.3047 4.3401 4.44524 3.62286 4.72632 2.95386C4.63263 2.95386 4.53893 2.95386 4.44524 2.95386C3.3209 2.95386 2.47764 3.28804 2.10286 3.90967C1.72808 4.57911 1.86862 5.58272 2.57134 6.72996C3.03981 6.20414 3.55514 5.67854 4.16415 5.15251Z" fill="#E8E8E8"/>
<path d="M7.8651 3.00156C8.5676 2.71454 9.31716 2.52355 9.97324 2.38015C9.41107 1.23291 8.66171 0.563477 7.8651 0.563477C7.06869 0.563477 6.31913 1.28071 5.75696 2.38015C6.41303 2.47532 7.16259 2.71476 7.8651 3.00156Z" fill="#E8E8E8"/>
<path d="M5.94415 10.7454C5.61622 10.5542 5.28829 10.3628 5.0072 10.124C5.1009 10.6501 5.28871 11.1757 5.42925 11.6057C5.89731 11.5103 6.41305 11.4144 6.92837 11.2713C6.60002 11.1276 6.27188 10.9362 5.94415 10.7454Z" fill="#E8E8E8"/>
<path d="M5.00729 12.4185C4.8199 12.4185 4.63251 12.4665 4.44512 12.4665C3.74241 12.4665 3.13339 12.3709 2.66492 12.1321C3.6483 13.2791 5.00688 14.0922 6.506 14.3783C5.89719 13.9481 5.38208 13.2787 5.00729 12.4185Z" fill="#E8E8E8"/>
<path d="M4.39813 2.23676C4.58552 2.23676 4.77291 2.23676 4.9603 2.28457C5.38193 1.42435 5.85041 0.75492 6.41258 0.324707C4.91367 0.659531 3.55509 1.47194 2.57129 2.57137C3.13346 2.37996 3.74248 2.23676 4.39813 2.23676Z" fill="#E8E8E8"/>
<path d="M2.00908 7.49475C2.05634 7.44673 2.05634 7.39957 2.10277 7.35134C2.05593 7.30311 2.05593 7.25574 2.00908 7.20794C1.5406 6.44312 1.25952 5.72609 1.16582 5.1051C0.978433 5.8217 0.837891 6.53872 0.837891 7.35134C0.837891 8.16397 0.978433 8.88099 1.21267 9.59758C1.25952 8.9768 1.54039 8.25957 2.00908 7.49475Z" fill="#E8E8E8"/>
<path d="M11.3318 12.4659C11.1444 12.4659 10.957 12.4659 10.7696 12.4181C10.3476 13.2781 9.8791 13.948 9.31714 14.3782C10.8163 14.0438 12.1748 13.2308 13.1588 12.132C12.5969 12.3227 11.9877 12.4659 11.3318 12.4659Z" fill="#E8E8E8"/>
<path d="M13.6268 10.7454C14.0491 10.0286 13.8142 9.02457 13.1117 7.92493C12.6435 8.45096 12.1277 9.02436 11.5193 9.50259C11.3782 10.3156 11.1914 11.0322 10.9572 11.7017C11.0508 11.7017 11.1445 11.7017 11.2382 11.7017C12.4561 11.749 13.2993 11.3668 13.6268 10.7454Z" fill="#E8E8E8"/>
<path d="M9.78568 10.7454C9.45775 10.9364 9.12939 11.1276 8.80188 11.2713C9.31699 11.4149 9.83253 11.5583 10.301 11.6057C10.4884 11.175 10.6285 10.6498 10.7226 10.124C10.4415 10.3628 10.1136 10.554 9.78568 10.7454Z" fill="#E8E8E8"/>
<path d="M5.94421 3.95762C6.27172 3.76642 6.60007 3.57543 6.928 3.4316C6.41268 3.28819 5.89694 3.14479 5.42888 3.09741C5.24149 3.52763 5.10095 4.05323 5.00684 4.57904C5.28855 4.34025 5.61627 4.14883 5.94421 3.95762Z" fill="#E8E8E8"/>
<path d="M10.7227 2.28463C10.9101 2.28463 11.0977 2.23661 11.2849 2.23661C11.9872 2.23661 12.5964 2.332 13.0651 2.5708C12.0817 1.42399 10.7231 0.611149 9.224 0.324341C9.8326 0.754767 10.3481 1.42441 10.7227 2.28463Z" fill="#E8E8E8"/>
<path d="M14.5176 5.1051C14.4703 5.77411 14.1896 6.49092 13.6741 7.20794C13.6272 7.25574 13.6272 7.30311 13.5808 7.35134C14.0959 8.11617 14.4236 8.92922 14.5176 9.59758C14.7514 8.8812 14.8919 8.11638 14.8919 7.35134C14.8919 6.53872 14.7514 5.8217 14.5176 5.1051Z" fill="#E8E8E8"/>
</svg>
